<mxfile host="app.diagrams.net" modified="2021-05-04T16:40:31.335Z" agent="5.0 (Windows NT 10.0; Win64; x64) AppleWebKit/537.36 (KHTML, like Gecko) Chrome/90.0.4430.93 Safari/537.36" etag="hcQT6KHhF2LZaxxJPXEQ" version="14.6.9" type="github">
  <diagram id="C5RBs43oDa-KdzZeNtuy" name="Page-1">
    <mxGraphModel dx="2012" dy="614" grid="1" gridSize="10" guides="1" tooltips="1" connect="1" arrows="1" fold="1" page="1" pageScale="1" pageWidth="827" pageHeight="1169" math="0" shadow="0">
      <root>
        <mxCell id="WIyWlLk6GJQsqaUBKTNV-0" />
        <mxCell id="WIyWlLk6GJQsqaUBKTNV-1" parent="WIyWlLk6GJQsqaUBKTNV-0" />
        <mxCell id="9dNqhOgivoiZ6W1wqB-2-0" value="Unit" style="swimlane;fontStyle=1;align=center;verticalAlign=top;childLayout=stackLayout;horizontal=1;startSize=26;horizontalStack=0;resizeParent=1;resizeParentMax=0;resizeLast=0;collapsible=1;marginBottom=0;" parent="WIyWlLk6GJQsqaUBKTNV-1" vertex="1">
          <mxGeometry x="-400" y="440" width="160" height="134" as="geometry" />
        </mxCell>
        <mxCell id="3fMmGniaZa0Ab18YjtJ4-28" value="" style="endArrow=block;dashed=1;endFill=0;endSize=12;html=1;" parent="9dNqhOgivoiZ6W1wqB-2-0" target="3fMmGniaZa0Ab18YjtJ4-23" edge="1">
          <mxGeometry width="160" relative="1" as="geometry">
            <mxPoint x="80" as="sourcePoint" />
            <mxPoint x="239" y="-151" as="targetPoint" />
            <Array as="points" />
          </mxGeometry>
        </mxCell>
        <mxCell id="9dNqhOgivoiZ6W1wqB-2-1" value="- life: int &#xa;- atk: int&#xa;- def: int &#xa;- attribute: int &#xa;&#xa;" style="text;strokeColor=none;fillColor=none;align=left;verticalAlign=top;spacingLeft=4;spacingRight=4;overflow=hidden;rotatable=0;points=[[0,0.5],[1,0.5]];portConstraint=eastwest;" parent="9dNqhOgivoiZ6W1wqB-2-0" vertex="1">
          <mxGeometry y="26" width="160" height="74" as="geometry" />
        </mxCell>
        <mxCell id="9dNqhOgivoiZ6W1wqB-2-2" value="" style="line;strokeWidth=1;fillColor=none;align=left;verticalAlign=middle;spacingTop=-1;spacingLeft=3;spacingRight=3;rotatable=0;labelPosition=right;points=[];portConstraint=eastwest;" parent="9dNqhOgivoiZ6W1wqB-2-0" vertex="1">
          <mxGeometry y="100" width="160" height="8" as="geometry" />
        </mxCell>
        <mxCell id="9dNqhOgivoiZ6W1wqB-2-3" value="+ spezialEffekt(void): void " style="text;strokeColor=none;fillColor=none;align=left;verticalAlign=top;spacingLeft=4;spacingRight=4;overflow=hidden;rotatable=0;points=[[0,0.5],[1,0.5]];portConstraint=eastwest;" parent="9dNqhOgivoiZ6W1wqB-2-0" vertex="1">
          <mxGeometry y="108" width="160" height="26" as="geometry" />
        </mxCell>
        <mxCell id="9dNqhOgivoiZ6W1wqB-2-14" value="«interface»&lt;br&gt;&lt;b&gt;WebServer&lt;/b&gt;" style="html=1;" parent="WIyWlLk6GJQsqaUBKTNV-1" vertex="1">
          <mxGeometry x="280" y="40" width="201" height="70" as="geometry" />
        </mxCell>
        <mxCell id="3fMmGniaZa0Ab18YjtJ4-0" value="Actor" style="shape=umlActor;verticalLabelPosition=bottom;verticalAlign=top;html=1;outlineConnect=0;" parent="WIyWlLk6GJQsqaUBKTNV-1" vertex="1">
          <mxGeometry x="1050" y="200" width="30" height="60" as="geometry" />
        </mxCell>
        <mxCell id="3fMmGniaZa0Ab18YjtJ4-2" value="Actor" style="shape=umlActor;verticalLabelPosition=bottom;verticalAlign=top;html=1;outlineConnect=0;" parent="WIyWlLk6GJQsqaUBKTNV-1" vertex="1">
          <mxGeometry x="1050" y="40" width="30" height="60" as="geometry" />
        </mxCell>
        <mxCell id="3fMmGniaZa0Ab18YjtJ4-6" value="Spielfeld" style="swimlane;fontStyle=1;align=center;verticalAlign=top;childLayout=stackLayout;horizontal=1;startSize=26;horizontalStack=0;resizeParent=1;resizeParentMax=0;resizeLast=0;collapsible=1;marginBottom=0;" parent="WIyWlLk6GJQsqaUBKTNV-1" vertex="1">
          <mxGeometry x="340" y="260" width="320" height="310" as="geometry" />
        </mxCell>
        <mxCell id="3fMmGniaZa0Ab18YjtJ4-7" value="+ fieldPlayer1: ArrayList &lt;BaseCard&gt;  &#xa;+ fieldPlayer2: ArrayList &lt;BaseCard&gt;  &#xa;&#xa;" style="text;strokeColor=none;fillColor=none;align=left;verticalAlign=top;spacingLeft=4;spacingRight=4;overflow=hidden;rotatable=0;points=[[0,0.5],[1,0.5]];portConstraint=eastwest;" parent="3fMmGniaZa0Ab18YjtJ4-6" vertex="1">
          <mxGeometry y="26" width="320" height="54" as="geometry" />
        </mxCell>
        <mxCell id="3fMmGniaZa0Ab18YjtJ4-8" value="" style="line;strokeWidth=1;fillColor=none;align=left;verticalAlign=middle;spacingTop=-1;spacingLeft=3;spacingRight=3;rotatable=0;labelPosition=right;points=[];portConstraint=eastwest;" parent="3fMmGniaZa0Ab18YjtJ4-6" vertex="1">
          <mxGeometry y="80" width="320" height="18" as="geometry" />
        </mxCell>
        <mxCell id="3fMmGniaZa0Ab18YjtJ4-9" value="+ angriffKarte(Karte): karte&#xa;+ angriffAufSpieler(Karte): Spieler&#xa;+ effektAufKarte(Karte): karte&#xa;+ efferktAufGegenSpieler(Karte): Spieler&#xa;+ effektAufEigenenSpieler(Karte): Spieler &#xa;+ karteTransformierenInAndereKarte (Karte): karte  &#xa;+ KarteInFriedhof(Karte): karte&#xa;+ EigeneKarteVonFreidhofInDeck(Karte): karte &#xa;+ EigeneKarteVonFreidhofInHand(Karte): karte&#xa;+ EigeneKarteVonFriedhofInSpielfeld(Karte): karte&#xa;+ KarteZiehen(Karte): karte&#xa;+ KarteLebenVerlieren(Karte): karte&#xa;+ KarteAtkVerlieren(karte): karte&#xa;+ DefKarteÄndern(karte): karte&#xa;&#xa;&#xa; " style="text;strokeColor=none;fillColor=none;align=left;verticalAlign=top;spacingLeft=4;spacingRight=4;overflow=hidden;rotatable=0;points=[[0,0.5],[1,0.5]];portConstraint=eastwest;" parent="3fMmGniaZa0Ab18YjtJ4-6" vertex="1">
          <mxGeometry y="98" width="320" height="212" as="geometry" />
        </mxCell>
        <mxCell id="3fMmGniaZa0Ab18YjtJ4-20" value="BaseCard" style="swimlane;fontStyle=1;align=center;verticalAlign=top;childLayout=stackLayout;horizontal=1;startSize=26;horizontalStack=0;resizeParent=1;resizeParentMax=0;resizeLast=0;collapsible=1;marginBottom=0;" parent="WIyWlLk6GJQsqaUBKTNV-1" vertex="1">
          <mxGeometry x="-80" y="110" width="160" height="240" as="geometry" />
        </mxCell>
        <mxCell id="3fMmGniaZa0Ab18YjtJ4-21" value="- cardID: int&#xa;- name: String&#xa;- rare: int &#xa;- cost: int &#xa;- fraktion: int&#xa;- img: jpg &#xa;- text: String&#xa;- lore: String &#xa;" style="text;strokeColor=none;fillColor=none;align=left;verticalAlign=top;spacingLeft=4;spacingRight=4;overflow=hidden;rotatable=0;points=[[0,0.5],[1,0.5]];portConstraint=eastwest;" parent="3fMmGniaZa0Ab18YjtJ4-20" vertex="1">
          <mxGeometry y="26" width="160" height="144" as="geometry" />
        </mxCell>
        <mxCell id="3fMmGniaZa0Ab18YjtJ4-22" value="" style="line;strokeWidth=1;fillColor=none;align=left;verticalAlign=middle;spacingTop=-1;spacingLeft=3;spacingRight=3;rotatable=0;labelPosition=right;points=[];portConstraint=eastwest;" parent="3fMmGniaZa0Ab18YjtJ4-20" vertex="1">
          <mxGeometry y="170" width="160" height="20" as="geometry" />
        </mxCell>
        <mxCell id="3fMmGniaZa0Ab18YjtJ4-23" value="+ eventEffect(void): void" style="text;strokeColor=none;fillColor=none;align=left;verticalAlign=top;spacingLeft=4;spacingRight=4;overflow=hidden;rotatable=0;points=[[0,0.5],[1,0.5]];portConstraint=eastwest;" parent="3fMmGniaZa0Ab18YjtJ4-20" vertex="1">
          <mxGeometry y="190" width="160" height="50" as="geometry" />
        </mxCell>
        <mxCell id="3fMmGniaZa0Ab18YjtJ4-24" value="BoundSpell" style="swimlane;fontStyle=1;align=center;verticalAlign=top;childLayout=stackLayout;horizontal=1;startSize=26;horizontalStack=0;resizeParent=1;resizeParentMax=0;resizeLast=0;collapsible=1;marginBottom=0;" parent="WIyWlLk6GJQsqaUBKTNV-1" vertex="1">
          <mxGeometry y="470" width="160" height="86" as="geometry" />
        </mxCell>
        <mxCell id="3fMmGniaZa0Ab18YjtJ4-25" value="+ field: type" style="text;strokeColor=none;fillColor=none;align=left;verticalAlign=top;spacingLeft=4;spacingRight=4;overflow=hidden;rotatable=0;points=[[0,0.5],[1,0.5]];portConstraint=eastwest;" parent="3fMmGniaZa0Ab18YjtJ4-24" vertex="1">
          <mxGeometry y="26" width="160" height="26" as="geometry" />
        </mxCell>
        <mxCell id="3fMmGniaZa0Ab18YjtJ4-26" value="" style="line;strokeWidth=1;fillColor=none;align=left;verticalAlign=middle;spacingTop=-1;spacingLeft=3;spacingRight=3;rotatable=0;labelPosition=right;points=[];portConstraint=eastwest;" parent="3fMmGniaZa0Ab18YjtJ4-24" vertex="1">
          <mxGeometry y="52" width="160" height="8" as="geometry" />
        </mxCell>
        <mxCell id="3fMmGniaZa0Ab18YjtJ4-27" value="+ spezialEffekt(void): void " style="text;strokeColor=none;fillColor=none;align=left;verticalAlign=top;spacingLeft=4;spacingRight=4;overflow=hidden;rotatable=0;points=[[0,0.5],[1,0.5]];portConstraint=eastwest;" parent="3fMmGniaZa0Ab18YjtJ4-24" vertex="1">
          <mxGeometry y="60" width="160" height="26" as="geometry" />
        </mxCell>
        <mxCell id="3fMmGniaZa0Ab18YjtJ4-29" value="" style="endArrow=block;dashed=1;endFill=0;endSize=12;html=1;entryX=0.99;entryY=1.106;entryDx=0;entryDy=0;entryPerimeter=0;" parent="3fMmGniaZa0Ab18YjtJ4-24" target="3fMmGniaZa0Ab18YjtJ4-23" edge="1">
          <mxGeometry width="160" relative="1" as="geometry">
            <mxPoint x="80" y="-2" as="sourcePoint" />
            <mxPoint x="240" y="-2" as="targetPoint" />
            <Array as="points" />
          </mxGeometry>
        </mxCell>
        <mxCell id="Qxw32YyxHuZ2CJQDh9gd-0" value="Friedhof" style="swimlane;fontStyle=1;align=center;verticalAlign=top;childLayout=stackLayout;horizontal=1;startSize=26;horizontalStack=0;resizeParent=1;resizeParentMax=0;resizeLast=0;collapsible=1;marginBottom=0;" vertex="1" parent="WIyWlLk6GJQsqaUBKTNV-1">
          <mxGeometry x="870" y="438" width="160" height="86" as="geometry" />
        </mxCell>
        <mxCell id="Qxw32YyxHuZ2CJQDh9gd-1" value="+ field: type" style="text;strokeColor=none;fillColor=none;align=left;verticalAlign=top;spacingLeft=4;spacingRight=4;overflow=hidden;rotatable=0;points=[[0,0.5],[1,0.5]];portConstraint=eastwest;" vertex="1" parent="Qxw32YyxHuZ2CJQDh9gd-0">
          <mxGeometry y="26" width="160" height="26" as="geometry" />
        </mxCell>
        <mxCell id="Qxw32YyxHuZ2CJQDh9gd-2" value="" style="line;strokeWidth=1;fillColor=none;align=left;verticalAlign=middle;spacingTop=-1;spacingLeft=3;spacingRight=3;rotatable=0;labelPosition=right;points=[];portConstraint=eastwest;" vertex="1" parent="Qxw32YyxHuZ2CJQDh9gd-0">
          <mxGeometry y="52" width="160" height="8" as="geometry" />
        </mxCell>
        <mxCell id="Qxw32YyxHuZ2CJQDh9gd-3" value="+ method(type): type" style="text;strokeColor=none;fillColor=none;align=left;verticalAlign=top;spacingLeft=4;spacingRight=4;overflow=hidden;rotatable=0;points=[[0,0.5],[1,0.5]];portConstraint=eastwest;" vertex="1" parent="Qxw32YyxHuZ2CJQDh9gd-0">
          <mxGeometry y="60" width="160" height="26" as="geometry" />
        </mxCell>
        <mxCell id="Qxw32YyxHuZ2CJQDh9gd-4" value="Spieler" style="swimlane;fontStyle=1;align=center;verticalAlign=top;childLayout=stackLayout;horizontal=1;startSize=26;horizontalStack=0;resizeParent=1;resizeParentMax=0;resizeLast=0;collapsible=1;marginBottom=0;" vertex="1" parent="WIyWlLk6GJQsqaUBKTNV-1">
          <mxGeometry x="720" y="80" width="160" height="208" as="geometry" />
        </mxCell>
        <mxCell id="Qxw32YyxHuZ2CJQDh9gd-5" value="+ spieleHandField1: karte&#xa;+ handField2: karte&#xa;+ handField3: karte " style="text;strokeColor=none;fillColor=none;align=left;verticalAlign=top;spacingLeft=4;spacingRight=4;overflow=hidden;rotatable=0;points=[[0,0.5],[1,0.5]];portConstraint=eastwest;" vertex="1" parent="Qxw32YyxHuZ2CJQDh9gd-4">
          <mxGeometry y="26" width="160" height="94" as="geometry" />
        </mxCell>
        <mxCell id="Qxw32YyxHuZ2CJQDh9gd-6" value="" style="line;strokeWidth=1;fillColor=none;align=left;verticalAlign=middle;spacingTop=-1;spacingLeft=3;spacingRight=3;rotatable=0;labelPosition=right;points=[];portConstraint=eastwest;" vertex="1" parent="Qxw32YyxHuZ2CJQDh9gd-4">
          <mxGeometry y="120" width="160" height="8" as="geometry" />
        </mxCell>
        <mxCell id="Qxw32YyxHuZ2CJQDh9gd-7" value="+ method(type): type" style="text;strokeColor=none;fillColor=none;align=left;verticalAlign=top;spacingLeft=4;spacingRight=4;overflow=hidden;rotatable=0;points=[[0,0.5],[1,0.5]];portConstraint=eastwest;" vertex="1" parent="Qxw32YyxHuZ2CJQDh9gd-4">
          <mxGeometry y="128" width="160" height="80" as="geometry" />
        </mxCell>
        <mxCell id="Qxw32YyxHuZ2CJQDh9gd-8" value="" style="endArrow=block;dashed=1;endFill=0;endSize=12;html=1;exitX=0.5;exitY=0;exitDx=0;exitDy=0;entryX=0;entryY=0.5;entryDx=0;entryDy=0;" edge="1" parent="WIyWlLk6GJQsqaUBKTNV-1" source="3fMmGniaZa0Ab18YjtJ4-20" target="9dNqhOgivoiZ6W1wqB-2-14">
          <mxGeometry width="160" relative="1" as="geometry">
            <mxPoint x="20" y="80" as="sourcePoint" />
            <mxPoint x="180" y="80" as="targetPoint" />
          </mxGeometry>
        </mxCell>
      </root>
    </mxGraphModel>
  </diagram>
</mxfile>
